<mxfile host="app.diagrams.net" modified="2023-08-19T14:39:30.926Z" agent="Mozilla/5.0 (Macintosh; Intel Mac OS X 10.15; rv:109.0) Gecko/20100101 Firefox/116.0" etag="JNkrx1yqytH12rmJWZbj" version="21.6.8" type="device">
  <diagram name="Page-1" id="1oqv_btH1f0EovuVKJrO">
    <mxGraphModel dx="714" dy="462" grid="1" gridSize="10" guides="1" tooltips="1" connect="1" arrows="1" fold="1" page="1" pageScale="1" pageWidth="850" pageHeight="1100" math="0" shadow="0">
      <root>
        <mxCell id="0" />
        <mxCell id="1" parent="0" />
        <mxCell id="0-GHeeHQITGYAtwlACPG-8" style="edgeStyle=orthogonalEdgeStyle;rounded=0;orthogonalLoop=1;jettySize=auto;html=1;exitX=0.25;exitY=1;exitDx=0;exitDy=0;entryX=0.25;entryY=0;entryDx=0;entryDy=0;" edge="1" parent="1" source="0-GHeeHQITGYAtwlACPG-1" target="0-GHeeHQITGYAtwlACPG-3">
          <mxGeometry relative="1" as="geometry" />
        </mxCell>
        <mxCell id="0-GHeeHQITGYAtwlACPG-19" value="Timeout" style="edgeLabel;html=1;align=center;verticalAlign=middle;resizable=0;points=[];" vertex="1" connectable="0" parent="0-GHeeHQITGYAtwlACPG-8">
          <mxGeometry x="0.05" y="-3" relative="1" as="geometry">
            <mxPoint y="-6" as="offset" />
          </mxGeometry>
        </mxCell>
        <mxCell id="0-GHeeHQITGYAtwlACPG-12" value="Btn Pressed" style="edgeStyle=orthogonalEdgeStyle;rounded=0;orthogonalLoop=1;jettySize=auto;html=1;exitX=0;exitY=0.25;exitDx=0;exitDy=0;entryX=1;entryY=0.25;entryDx=0;entryDy=0;" edge="1" parent="1" source="0-GHeeHQITGYAtwlACPG-1" target="0-GHeeHQITGYAtwlACPG-4">
          <mxGeometry relative="1" as="geometry" />
        </mxCell>
        <mxCell id="0-GHeeHQITGYAtwlACPG-15" style="edgeStyle=orthogonalEdgeStyle;rounded=0;orthogonalLoop=1;jettySize=auto;html=1;exitX=1;exitY=0.75;exitDx=0;exitDy=0;entryX=0;entryY=0.75;entryDx=0;entryDy=0;" edge="1" parent="1" source="0-GHeeHQITGYAtwlACPG-1" target="0-GHeeHQITGYAtwlACPG-2">
          <mxGeometry relative="1" as="geometry" />
        </mxCell>
        <mxCell id="0-GHeeHQITGYAtwlACPG-17" value="4th tap hit" style="edgeLabel;html=1;align=center;verticalAlign=middle;resizable=0;points=[];" vertex="1" connectable="0" parent="0-GHeeHQITGYAtwlACPG-15">
          <mxGeometry x="0.05" y="1" relative="1" as="geometry">
            <mxPoint x="-2" as="offset" />
          </mxGeometry>
        </mxCell>
        <mxCell id="0-GHeeHQITGYAtwlACPG-1" value="TAP" style="rounded=1;whiteSpace=wrap;html=1;" vertex="1" parent="1">
          <mxGeometry x="280" y="160" width="120" height="40" as="geometry" />
        </mxCell>
        <mxCell id="0-GHeeHQITGYAtwlACPG-16" value="Tap hit" style="edgeStyle=orthogonalEdgeStyle;rounded=0;orthogonalLoop=1;jettySize=auto;html=1;exitX=0;exitY=0.25;exitDx=0;exitDy=0;entryX=1;entryY=0.25;entryDx=0;entryDy=0;" edge="1" parent="1" source="0-GHeeHQITGYAtwlACPG-2" target="0-GHeeHQITGYAtwlACPG-1">
          <mxGeometry relative="1" as="geometry" />
        </mxCell>
        <mxCell id="0-GHeeHQITGYAtwlACPG-20" value="Btn Pressed" style="edgeStyle=orthogonalEdgeStyle;rounded=0;orthogonalLoop=1;jettySize=auto;html=1;exitX=0.5;exitY=1;exitDx=0;exitDy=0;entryX=0.25;entryY=1;entryDx=0;entryDy=0;" edge="1" parent="1" source="0-GHeeHQITGYAtwlACPG-2" target="0-GHeeHQITGYAtwlACPG-4">
          <mxGeometry x="-0.4783" relative="1" as="geometry">
            <Array as="points">
              <mxPoint x="570" y="300" />
              <mxPoint x="80" y="300" />
            </Array>
            <mxPoint as="offset" />
          </mxGeometry>
        </mxCell>
        <mxCell id="0-GHeeHQITGYAtwlACPG-2" value="PLAY" style="rounded=1;whiteSpace=wrap;html=1;" vertex="1" parent="1">
          <mxGeometry x="510" y="160" width="120" height="40" as="geometry" />
        </mxCell>
        <mxCell id="0-GHeeHQITGYAtwlACPG-9" value="Tap hit" style="edgeStyle=orthogonalEdgeStyle;rounded=0;orthogonalLoop=1;jettySize=auto;html=1;exitX=0.75;exitY=0;exitDx=0;exitDy=0;entryX=0.75;entryY=1;entryDx=0;entryDy=0;" edge="1" parent="1" source="0-GHeeHQITGYAtwlACPG-3" target="0-GHeeHQITGYAtwlACPG-1">
          <mxGeometry relative="1" as="geometry" />
        </mxCell>
        <mxCell id="0-GHeeHQITGYAtwlACPG-21" value="Btn Pressed" style="edgeStyle=orthogonalEdgeStyle;rounded=0;orthogonalLoop=1;jettySize=auto;html=1;exitX=0;exitY=0.5;exitDx=0;exitDy=0;entryX=0.75;entryY=1;entryDx=0;entryDy=0;" edge="1" parent="1" source="0-GHeeHQITGYAtwlACPG-3" target="0-GHeeHQITGYAtwlACPG-4">
          <mxGeometry x="-0.2381" relative="1" as="geometry">
            <mxPoint as="offset" />
          </mxGeometry>
        </mxCell>
        <mxCell id="0-GHeeHQITGYAtwlACPG-3" value="SLEEP" style="rounded=1;whiteSpace=wrap;html=1;" vertex="1" parent="1">
          <mxGeometry x="280" y="250" width="120" height="40" as="geometry" />
        </mxCell>
        <mxCell id="0-GHeeHQITGYAtwlACPG-11" value="Btn Pressed" style="edgeStyle=orthogonalEdgeStyle;rounded=0;orthogonalLoop=1;jettySize=auto;html=1;exitX=1;exitY=0.75;exitDx=0;exitDy=0;entryX=0;entryY=0.75;entryDx=0;entryDy=0;" edge="1" parent="1" source="0-GHeeHQITGYAtwlACPG-4" target="0-GHeeHQITGYAtwlACPG-1">
          <mxGeometry relative="1" as="geometry" />
        </mxCell>
        <mxCell id="0-GHeeHQITGYAtwlACPG-4" value="SETTINGS" style="rounded=1;whiteSpace=wrap;html=1;" vertex="1" parent="1">
          <mxGeometry x="50" y="160" width="120" height="40" as="geometry" />
        </mxCell>
        <mxCell id="0-GHeeHQITGYAtwlACPG-6" value="Tap hit" style="edgeStyle=orthogonalEdgeStyle;rounded=0;orthogonalLoop=1;jettySize=auto;html=1;exitX=0.75;exitY=0;exitDx=0;exitDy=0;entryX=0.25;entryY=0;entryDx=0;entryDy=0;" edge="1" parent="1" source="0-GHeeHQITGYAtwlACPG-1" target="0-GHeeHQITGYAtwlACPG-1">
          <mxGeometry relative="1" as="geometry">
            <Array as="points">
              <mxPoint x="370" y="120" />
              <mxPoint x="310" y="120" />
            </Array>
          </mxGeometry>
        </mxCell>
        <mxCell id="0-GHeeHQITGYAtwlACPG-18" value="Encoder" style="edgeStyle=orthogonalEdgeStyle;rounded=0;orthogonalLoop=1;jettySize=auto;html=1;exitX=0.75;exitY=0;exitDx=0;exitDy=0;entryX=0.25;entryY=0;entryDx=0;entryDy=0;" edge="1" parent="1" source="0-GHeeHQITGYAtwlACPG-4" target="0-GHeeHQITGYAtwlACPG-4">
          <mxGeometry relative="1" as="geometry">
            <Array as="points">
              <mxPoint x="140" y="120" />
              <mxPoint x="80" y="120" />
            </Array>
          </mxGeometry>
        </mxCell>
      </root>
    </mxGraphModel>
  </diagram>
</mxfile>
